<svg xmlns="http://www.w3.org/2000/svg" viewBox="0 0 256 256" enable-background="new 0 0 256 256"><style type="text/css">.st0{fill:#000;}</style><path class="st0" d="M217.8 210.5l-21.6-5.8c-.9-.2-1.9-1.1-1.9-1.9l-2.6-11.6-49.6-5.3v19.9c0 1.1-.8 2.2-1.9 2.6l-10.5 2.6-1.3-.2-10.3-2.8c-1.1-.4-2.1-1.3-2-2.4 0 0-.4-8.3-.8-19.9l-49.4 4.3-2 11.1c-.2.9-1.1 1.9-2.1 2.1l-21.8 4.8c-1.5.4-2.8-.6-3-1.9l-3-13.5c-.2-.6-.2-1.7.4-2.2 8.1-10.7 45.8-48.5 51.3-53.9l30.6-117.7c.4-1.1 1.7-2.1 2.8-2.1l7.7.2 8.1.2c1 .2 2.1.9 2.4 2.1l33.6 118.5c5.4 5.4 43.9 44.3 52.8 55 .6.6.7 1.5.6 2.1l-3.2 13.7c-.3 1.6-1.8 2.3-3.3 2zm-18.8-10.6l17.5 4.7 2.3-9.8-52.2-54.1-33.9-118.2-6.2-.2-5.4-.2-31.1 117.6s-40.6 40.2-50.7 53l2.3 9.8 17.5-3.9 2.4-11.5c0-1.1 1.3-2.1 2.2-2.2l51.5-4.5c-.9-20.1-1.7-46.8-1.7-58.8l-.8-45.6.6-1.7 12.2-15.6c1.1-1.5 3-1.5 4.1 0l12.4 16.2.7 1.5-.4 45.1-.2 59.1 52.2 5.6c1.1 0 2.1.9 2.2 1.9l2.5 11.8zm-77.5 3.6l7.3 2.1 8.1-2.1c0-11.7.6-63.3.4-82.3l-.2-20.8-18.6-.6.4 21.4c-.2 18.6 2 71.6 2.6 82.3zm15.6-126.4l-9.4-12.4-9.6 12.2.2 17.5 19 .6-.2-17.9z"/></svg>
