<svg xmlns="http://www.w3.org/2000/svg" viewBox="0 0 256 256" enable-background="new 0 0 256 256"><style type="text/css">.st0{fill:#000;}</style><path class="st0" d="M45.3 151.3c1.6-4.7 38.5-42.3 41.4-46.6 2.8-4.1 25-51.6 27.3-55.9 1.7-14.2 4.5-24.9 7.6-30 .5-.5 1.4-1 2.1-1h8.6c.7 0 1.6.5 2.1 1 3.1 5.2 5.9 15.9 7.8 29.8 2.1 4.5 24.3 52 27.1 56.1 2.9 4.3 39.9 41.9 41.4 46.6 1.2 5-11.7 24.2-16.6 24.8-4 .5-54.4-11.2-60.9-12.6h-10.3c-6.4 1.6-56.9 13.1-60.9 12.6-4.9-.6-17.9-19.8-16.7-24.8zm79.6 7.4h6.2l8.6-67.6v.3c.2-31.6-3.6-58.5-8.8-68.9h-5.9c-5 10.2-9 37.3-8.8 68.9v-.3l8.7 67.6zm5.3-115.4v15.2c0 1.4-1 2.4-2.4 2.4s-2.4-1-2.4-2.4v-15.2c0-1.4 1-2.4 2.4-2.4s2.4 1 2.4 2.4zm-67.6 128c3.6.2 47.3-9.7 57.5-11.9l-8.6-67.6v-.4c0-10 .4-19.7 1-28.6-7.4 16-19.7 41.8-21.6 44.7-2.9 4.3-39.5 40.9-40.7 45.2-1.2 3.6 8.9 18 12.4 18.6zm73.4-11.9c10.4 2.1 53.8 12.1 57.5 11.9 3.4-.7 13.6-15 12.4-18.7-1.2-4.3-37.8-40.9-40.7-45.2-1.9-2.9-14.2-28.7-21.6-44.7.7 9 1 18.6 1 28.6v.4l-8.6 67.7zm-56.7-21.4v22.1c0 1.4-1 2.4-2.4 2.4s-2.4-1.1-2.4-2.4v-22.1c0-1.4 1-2.4 2.4-2.4s2.4 1 2.4 2.4zm51.3 44.4v15.2c0 1.4-1.1 2.4-2.4 2.4-1.4 0-2.4-1-2.4-2.4v-15.2c0-1.4 1-2.4 2.4-2.4 1.3 0 2.4 1 2.4 2.4zm50.9-44.4v22.1c0 1.4-1 2.4-2.4 2.4s-2.4-1-2.4-2.4v-22.1c0-1.4 1.1-2.4 2.4-2.4 1.4 0 2.4 1.1 2.4 2.4zm-50.9 78.9v8.3c0 1.4-1 2.4-2.4 2.4s-2.4-1-2.4-2.4v-8.3c0-1.4 1-2.4 2.4-2.4 1.3 0 2.4 1 2.4 2.4z"/></svg>
