<svg xmlns="http://www.w3.org/2000/svg" viewBox="0 0 256 256" enable-background="new 0 0 256 256"><style type="text/css">.st0{fill:#000;}</style><path class="st0" d="M85 205l-1.6-24.6h-22.7c-2.2 0-3.5-1.9-2.4-4l34-65.4v-21.3c0-1.4 1.4-2.7 2.7-2.7 1.4 0 2.7 1.4 2.7 2.7v11.1l11.4-21.9 16.2-61.3c.8-2.7 4.6-2.7 5.4 0l16.2 61.3 11.4 21.9v-11.1c0-1.4 1.3-2.7 2.7-2.7 1.3 0 2.7 1.4 2.7 2.7v21.3l34 65.4c1.1 2.2-.3 4-2.4 4h-22.7l-1.6 24.6c0 1.3-1.3 2.4-2.7 2.4h-13.5c-1.3 0-2.7-1.1-2.7-2.4l-1.6-24.6h-44.9l-1.6 24.6c0 1.3-1.4 2.4-2.7 2.4h-13.5c-1.4 0-2.8-1-2.8-2.4zm21.1-30h9.7l-5.9-85.4-12.2 23v26.2c0 1.4-1.3 2.7-2.7 2.7-1.3 0-2.7-1.4-2.7-2.7v-15.7l-27 51.9h17.6l-.5-8.4v-.8l2.7-14.1c.3-1.1 1.3-2.2 2.7-2.2h13.5c1.1 0 2.4 1.1 2.7 2.2l2.7 14.1v.8l-.6 8.4zm-7-20h-9.2l-2.2 11.6 2.4 35.4h8.6l2.4-35.4-2-11.6zm15.7-72.6l6.5 92.7h13.5l6.5-92.7h-26.5zm13.2-53l-12.7 47.6h25.4l-12.7-47.6zm21.4 136.4l2.7-14.1c.3-1.1 1.3-2.2 2.7-2.2h13.5c1.1 0 2.4 1.1 2.7 2.2l2.7 14.1v.8l-.5 8.4h17.6l-27-51.9v15.7c0 1.4-1.4 2.7-2.7 2.7-1.4 0-2.7-1.4-2.7-2.7v-26.2l-12.2-23-5.9 85.4h9.7l-.5-8.4v-.8zm16.7-10.8h-9.2l-2.2 11.6 2.4 35.4h8.6l2.4-35.4-2-11.6z"/></svg>
