<svg xmlns="http://www.w3.org/2000/svg" viewBox="0 0 256 256" enable-background="new 0 0 256 256"><style type="text/css">.st0{fill:#000;}</style><path class="st0" d="M208.9 174l-59 10.4c-.7 0-1.8-.4-2.3-.9l-7.4-8.1-24.6-.2-7.4 8.5c-.5.5-1.6.9-2.2.7l-59-10.4c-1.3-.2-2.3-1.3-2.2-2.5v-30.2c-.2-.9.5-2 1.6-2.3l51.4-20.5 14.2-64.9 9-33.8c.2-.9 1.4-1.8 2.5-1.8h9c1.1 0 2.2.7 2.3 2l8.4 32.6c.4.4.5.9.5 1.3v.4l13.8 64.2 51.6 20.7c.7.3 1.6 1.2 1.6 2.3v30.2c.3.9-.5 2.1-1.8 2.3zm-159-30.9v26.2l55.6 9.9 6.3-7.4.2-95.1-9.5 44.1c0 .7-.7 1.4-1.4 1.8l-51.2 20.5zm75-4.9h-7.9v32h7.9v-32zm14 0h-9v32h9v-32zm5.1-1.1l-.2 34.7 6.7 7.4 55.6-9.9v-26.3l-51.1-20.5c-.9-.2-1.4-1.1-1.6-1.6l-9.4-43.1-.2 56.6c.4.4.5.9.5 1.3l-.3 1.4zm-16.2-3.9h11.2v-77l-21.8.2-.2 76.8h10.1l.5-.2.2.2zm2.7-110.3l-4.8.2-7.7 28.2h20.1l-7.6-28.4zm.5 24.7h-5c-1.4 0-2.5-1.1-2.5-2.5s1.1-2.5 2.5-2.5h5c1.4 0 2.5 1.1 2.5 2.5s-1 2.5-2.5 2.5z"/></svg>
