<svg xmlns="http://www.w3.org/2000/svg" viewBox="0 0 792 612" enable-background="new 0 0 792 612"><style type="text/css">.st0{fill:#662E23;}</style><path class="st0" d="M343.9 567.1c-2.9-.6-5.3-2.9-5.3-6.4l2.9-41.5h-85.4c-3.5 0-5.9-2.3-5.9-5.9 0-38 13.5-64.4 29.3-85.4v-259.2c0-1.2.6-2.9 1.8-4.1l21.1-21.1c2.3-2.3 5.9-2.3 8.2 0l12.3 12.3c5.9-45 42.1-97.1 70.2-115.2 1.8-1.2 4.1-1.2 5.9 0 28.1 18.1 64.4 70.2 70.2 115.2l12.3-12.3c2.3-2.3 5.9-2.3 8.2 0l21.1 21.1c1.2 1.2 1.8 2.9 1.8 4.1v259.2c15.8 21.1 29.3 47.4 29.3 85.4 0 3.5-2.3 5.9-5.9 5.9h-85.4l2.9 41.5c0 3.5-2.3 5.9-5.3 6.4l-52.1 5.3h-1.2l-51-5.3zm-81.9-59.7h80.1l2.9-42.7c0-2.3 2.3-4.7 5.3-5.3l3.5-.6v-155.6c-8.8 34.5-20.5 70.8-32.2 88.3-18.6 29.3-56.6 56.8-59.6 115.9zm62-37.4h-30.4c-2.9 0-5.9-2.9-5.9-5.9 0-2.9 2.9-5.8 5.9-5.9h30.4c2.9 0 5.9 2.9 5.9 5.9 0 2.9-2.9 5.9-5.9 5.9zm-2.3-102.4v-196.6l-15.2-15.2-15.2 15.2v242.2c7.6-9.9 15.2-18.7 21.1-27.5 2.9-4.7 6.4-11.1 9.3-18.1zm11.7-32.8c11.7-38 20.5-82.5 20.5-102.4 0-17.6 29.8-54.4 42.1-54.4 12.9 0 42.7 36.9 42.7 54.4 0 19.9 8.8 63.8 19.9 100.6v-164.3c0-42.1-34.5-95.9-62.6-117-28.1 21.1-62.6 74.9-62.6 117v166.1zm56.2 131.1l-33.3 4.7-5.3 85.4 38.6 4.1v-94.2zm37.4-8.2v-225.3c0-12.9-20.5-42.7-31-42.7-9.9 0-30.4 29.8-30.4 42.7v225.2l29.3-4.1h1.2l30.9 4.2zm-19.3-214.7c-2.3-1.8-6.4-3.5-11.7-3.5s-8.8 1.8-11.1 3.5c-2.3 1.2-6.4.6-8.2-2.3-1.2-2.3-.6-6.4 2.3-8.2 3.5-1.8 9.4-4.7 17-4.7s14 2.9 17.6 4.7c2.9 1.8 3.5 5.9 2.3 8.2-1.8 2.8-5.9 3.4-8.2 2.3zm33.3 313l-5.3-85.4-34.5-4.7v94.1l39.8-4zm8.8-48.6h80.2c-2.9-59.1-41-86.6-59.7-115.8-3.5-5.3-7-12.3-10.5-21.1-.6-.6-1.2-1.8-1.2-2.9-7-18.1-14-41.5-19.9-64.4v155.6l2.9.6c2.9.6 5.3 2.9 5.3 5.3l2.9 42.7zm48.6-37.4h-30.4c-2.9 0-5.9-2.9-5.9-5.9 0-2.9 2.9-5.8 5.9-5.9h30.4c2.9 0 5.9 2.9 5.9 5.9-.1 2.9-3 5.9-5.9 5.9zm2.3-56.8v-242.2l-15.2-15.2-15.2 15.2v196c2.9 7.6 6.4 14 9.4 18.7 5.8 8.8 13.4 17.6 21 27.5z"/></svg>